HIERARCHY
ROOT WRIST
{
	OFFSET 0.000000 0.000000 0.000000
	CHANNELS 6 Xposition Yposition Zposition Yrotation Xrotation Zrotation
	JOINT THUMB_CMC_FE
	{
		OFFSET -0.225143 0.117753 -0.062308
		CHANNELS 3 Yrotation Xrotation Zrotation
		JOINT THUMB_CMC_AA
		{
			OFFSET -0.212856 -0.150507 0.098851
			CHANNELS 3 Yrotation Xrotation Zrotation
			JOINT THUMB_MCP_FE
			{
				OFFSET 0.322503 -0.167445 -0.031436
				CHANNELS 3 Yrotation Xrotation Zrotation
				JOINT THUMB_IP_FE
				{
					OFFSET -0.295233 -0.236404 0.025845
					CHANNELS 3 Yrotation Xrotation Zrotation
					End Site
					{
						OFFSET 0.000000 0.000000 0.000000
					}
				}
			}
		}
	}
	JOINT INDEX_MCP
	{
		OFFSET -1.076913 0.264198 -0.014768
		CHANNELS 3 Yrotation Xrotation Zrotation
		JOINT INDEX_PIP_FE
		{
			OFFSET -0.425053 0.013289 0.013619
			CHANNELS 3 Yrotation Xrotation Zrotation
			JOINT INDEX_DIP_FE
			{
				OFFSET -0.271505 -0.024898 0.000550
				CHANNELS 3 Yrotation Xrotation Zrotation
				End Site
				{
					OFFSET 0.000000 0.000000 0.000000
				}
			}
		}
	}
	JOINT MIDDLE_MCP
	{
		OFFSET -1.072991 0.019362 0.038780
		CHANNELS 3 Yrotation Xrotation Zrotation
		JOINT MIDDLE_PIP_FE
		{
			OFFSET -0.480704 0.002618 0.028696
			CHANNELS 3 Yrotation Xrotation Zrotation
			JOINT MIDDLE_DIP_FE
			{
				OFFSET -0.307486 -0.031129 -0.000643
				CHANNELS 3 Yrotation Xrotation Zrotation
				End Site
				{
					OFFSET 0.000000 0.000000 0.000000
				}
			}
		}
	}
	JOINT RING_MCP
	{
		OFFSET -0.994992 -0.195930 -0.005938
		CHANNELS 3 Yrotation Xrotation Zrotation
		JOINT RING_PIP_FE
		{
			OFFSET -0.436995 0.003792 0.019994
			CHANNELS 3 Yrotation Xrotation Zrotation
			JOINT RING_DIP_FE
			{
				OFFSET -0.295558 -0.038341 -0.006642
				CHANNELS 3 Yrotation Xrotation Zrotation
				End Site
				{
					OFFSET 0.000000 0.000000 0.000000
				}
			}
		}
	}
	JOINT PINKY_MCP
	{
		OFFSET -0.873858 -0.393246 -0.086282
		CHANNELS 3 Yrotation Xrotation Zrotation
		JOINT PINKY_PIP_FE
		{
			OFFSET -0.343972 -0.016492 0.013445
			CHANNELS 3 Yrotation Xrotation Zrotation
			JOINT PINKY_DIP_FE
			{
				OFFSET -0.224713 -0.036309 -0.010265
				CHANNELS 3 Yrotation Xrotation Zrotation
				End Site
				{
					OFFSET 0.000000 0.000000 0.000000
				}
			}
		}
	}
}
MOTION
Frames: 10
Frame Time: 0.008333334
-0.482839 2.861387 4.335725 -52.812770 -71.286620 -57.245540 -61.461180 4.834482 -73.597260 -119.352900 -30.976930 -10.608060 112.863900 -65.843230 40.173620 -4.562103 -8.459839 17.327940 162.326700 3.221725 168.427300 41.978260 -86.125610 -21.490420 2.052640 1.705008 33.244220 158.190400 -2.810516 164.238000 39.240880 -88.411440 -13.731170 6.002530 4.395462 3.564115 178.806400 -5.846222 163.876700 31.479670 -85.617800 0.971924 -0.199310 0.562928 0.536081 -163.024500 -7.221527 158.658700 48.977490 -83.530610 -5.837921 -5.539795 0.809181 35.570020 
-0.482621 2.861109 4.335629 -52.734990 -71.237790 -57.407810 -61.461180 4.834482 -73.514100 -119.352900 -30.976930 -10.656740 112.864000 -65.843260 40.231060 -4.562073 -8.459839 17.400680 162.331400 3.221823 168.344500 41.978050 -86.125610 -21.418150 2.052637 1.705001 33.291790 158.171600 -2.812134 164.178700 39.240550 -88.411320 -13.714140 6.002522 4.395451 3.792844 178.773200 -5.854340 163.827600 31.479510 -85.617800 0.953171 -0.199310 0.562918 0.350188 -162.965500 -7.198792 158.635300 48.977350 -83.530610 -5.850220 -5.539795 0.809176 35.625970 
-0.482390 2.860593 4.335614 -52.295680 -71.243100 -57.900020 -61.461180 4.834478 -73.582760 -119.352900 -30.976930 -10.662990 112.864000 -65.843260 40.292340 -4.562073 -8.459839 17.613610 162.382800 3.222958 168.357800 41.978410 -86.125550 -21.185880 2.052609 1.704989 33.104670 158.134400 -2.815338 164.179400 39.240620 -88.411440 -13.646820 6.002516 4.395442 3.996333 178.591800 -5.898621 163.843000 31.479620 -85.617830 0.765634 -0.199310 0.562928 0.448921 -163.069700 -7.238892 158.676100 48.977580 -83.530610 -5.817413 -5.539825 0.809159 35.429180 
-0.482671 2.860942 4.335842 -52.098300 -71.308810 -58.152710 -61.461180 4.834465 -73.673340 -119.352900 -30.976930 -10.749390 112.864000 -65.843200 40.487910 -4.562073 -8.459839 17.028350 162.606200 3.227823 168.469800 41.978120 -86.125550 -20.985080 2.052632 1.704999 33.046160 158.252000 -2.805176 164.301200 39.240850 -88.411440 -13.438660 6.002512 4.395445 3.126377 178.497300 -5.921661 163.910900 31.479650 -85.617830 0.576432 -0.199341 0.562912 0.715735 -163.155200 -7.271790 158.730000 48.977480 -83.530640 -6.000641 -5.539795 0.809173 35.482240 
-0.482515 2.860741 4.335514 -51.876250 -71.315550 -58.415710 -61.461180 4.834473 -73.729250 -119.352900 -30.976930 -10.798370 112.864000 -65.843260 40.478950 -4.562073 -8.459839 17.113870 162.601400 3.227715 168.517100 41.978130 -86.125550 -20.825440 2.052631 1.705006 33.119170 158.238800 -2.806305 164.356800 39.240470 -88.411190 -13.271550 6.002522 4.395441 3.168147 178.488400 -5.923828 163.965700 31.479510 -85.617800 0.749319 -0.199310 0.562911 0.587209 -163.240000 -7.304382 158.775300 48.977450 -83.530640 -5.793915 -5.539795 0.809175 35.371840 
-0.481805 2.860779 4.335838 -51.919460 -71.343320 -58.400940 -61.461180 4.834470 -73.656190 -119.352900 -30.976930 -10.714970 112.864000 -65.843200 40.455580 -4.562103 -8.459869 16.942710 162.710900 3.230080 168.509000 41.978050 -86.125550 -20.745210 2.052624 1.704992 33.101230 158.174100 -2.811920 164.364600 39.240960 -88.411320 -13.575590 6.002520 4.395441 3.125981 178.404100 -5.944366 163.949600 31.479570 -85.617800 0.481094 -0.199310 0.562921 0.823246 -163.218000 -7.295929 158.758400 48.977280 -83.530610 -5.865265 -5.539764 0.809182 35.465850 
-0.480935 2.860072 4.335831 -51.680790 -71.345890 -58.619420 -61.461180 4.834465 -73.741850 -119.352900 -30.976960 -10.721620 112.863900 -65.843230 40.644800 -4.562073 -8.459869 16.625370 162.532900 3.226228 168.542100 41.978280 -86.125670 -20.831020 2.052602 1.704981 33.002830 158.035800 -2.823853 164.420500 39.240220 -88.411440 -13.522950 6.002524 4.395446 3.443969 178.230100 -5.986725 163.975300 31.479210 -85.617860 0.392531 -0.199310 0.562918 1.006070 -163.396500 -7.364471 158.776900 48.977540 -83.530640 -5.781403 -5.539825 0.809166 35.259260 
-0.480497 2.860694 4.336234 -51.883700 -71.428590 -58.427830 -61.461180 4.834478 -73.701540 -119.352900 -30.976960 -10.623440 112.863900 -65.843200 40.686710 -4.562073 -8.459839 16.612110 162.595800 3.227592 168.506400 41.978150 -86.125610 -20.918460 2.052613 1.705021 33.026460 158.210800 -2.808716 164.341200 39.241150 -88.411320 -13.371090 6.002503 4.395448 3.588913 178.349900 -5.957581 163.920100 31.479530 -85.617800 0.535110 -0.199341 0.562909 0.786400 -163.370500 -7.354523 158.760000 48.977460 -83.530640 -5.969360 -5.539795 0.809183 35.247420 
-0.480170 2.860509 4.336192 -51.957820 -71.444150 -58.351990 -61.461180 4.834468 -73.636440 -119.352900 -30.976930 -10.562930 112.864000 -65.843230 40.603590 -4.562103 -8.459839 16.632290 162.403900 3.223428 168.471600 41.978030 -86.125670 -21.112700 2.052633 1.704994 33.145450 158.246600 -2.805634 164.260400 39.240920 -88.411320 -13.262300 6.002510 4.395444 3.675179 178.376400 -5.951141 163.869300 31.479440 -85.617800 0.633845 -0.199310 0.562933 0.704188 -163.298600 -7.326904 158.679900 48.977420 -83.530670 -5.779449 -5.539825 0.809171 35.160660 
-0.480090 2.860970 4.336608 -52.106020 -71.515410 -58.162600 -61.461180 4.834475 -73.707000 -119.352900 -30.976930 -10.622620 112.864000 -65.843200 40.728780 -4.562073 -8.459839 16.473570 162.414400 3.223636 168.525800 41.978090 -86.125610 -21.263790 2.052634 1.704985 33.224280 158.411900 -2.791321 164.223100 39.240280 -88.411560 -13.043030 6.002528 4.395460 3.946480 178.466800 -5.929138 163.895700 31.479610 -85.617830 0.638784 -0.199310 0.562936 0.691888 -163.281900 -7.320496 158.766000 48.977680 -83.530640 -5.851135 -5.539825 0.809184 35.211040 
